sfk_cyclingleg_states
version=1
nRows=9
nColumns=53
inDegrees=yes

# SIMM Motion File Header:
name sfk_cyclingleg_states
datacolumns 53
datarows 9
otherdata 1
range 0.82935097 0.83118525
endheader
time	/jointset/bb/crank_angle/value	/jointset/bb/crank_angle/speed	/jointset/spindle/pedal_angle_r/value	/jointset/spindle/pedal_angle_r/speed	/jointset/ground_pelvis/pelvis_tilt/value	/jointset/ground_pelvis/pelvis_tilt/speed	/jointset/ground_pelvis/pelvis_list/value	/jointset/ground_pelvis/pelvis_list/speed	/jointset/ground_pelvis/pelvis_rotation/value	/jointset/ground_pelvis/pelvis_rotation/speed	/jointset/ground_pelvis/pelvis_tx/value	/jointset/ground_pelvis/pelvis_tx/speed	/jointset/ground_pelvis/pelvis_ty/value	/jointset/ground_pelvis/pelvis_ty/speed	/jointset/ground_pelvis/pelvis_tz/value	/jointset/ground_pelvis/pelvis_tz/speed	/jointset/hip_r/hip_angle_r/value	/jointset/hip_r/hip_angle_r/speed	/jointset/hip_r/hip_adduction_r/value	/jointset/hip_r/hip_adduction_r/speed	/jointset/hip_r/hip_rotation_r/value	/jointset/hip_r/hip_rotation_r/speed	/jointset/knee_r/knee_angle_r/value	/jointset/knee_r/knee_angle_r/speed	/jointset/knee_r/tib_tx_r/value	/jointset/knee_r/tib_tx_r/speed	/jointset/knee_r/tib_ty_r/value	/jointset/knee_r/tib_ty_r/speed	/jointset/tib_pat_r/pat_angle_r/value	/jointset/tib_pat_r/pat_angle_r/speed	/jointset/tib_pat_r/pat_tx_r/value	/jointset/tib_pat_r/pat_tx_r/speed	/jointset/tib_pat_r/pat_ty_r/value	/jointset/tib_pat_r/pat_ty_r/speed	/jointset/ankle_r/ankle_angle_r/value	/jointset/ankle_r/ankle_angle_r/speed	/jointset/subtalar_r/subtalar_angle_r/value	/jointset/subtalar_r/subtalar_angle_r/speed	/jointset/mtp_r/mtp_angle_r/value	/jointset/mtp_r/mtp_angle_r/speed	/forceset/bifemlh_r/activation	/forceset/bifemlh_r/fiber_length	/forceset/bifemsh_r/activation	/forceset/bifemsh_r/fiber_length	/forceset/glut_max2_r/activation	/forceset/glut_max2_r/fiber_length	/forceset/vas_int_r/activation	/forceset/vas_int_r/fiber_length	/forceset/med_gas_r/activation	/forceset/med_gas_r/fiber_length	/forceset/tib_ant_r/activation	/forceset/tib_ant_r/fiber_length
      0.82935097	   -408.33831806	   -480.13863232	    415.35286144	    581.51423781	      0.00000000	      0.00000000	     -0.00000000	     -0.00000000	      0.00000000	      0.00000000	     -0.00000000	     -0.00000000	      0.00000000	      0.00000000	     -0.00000000	     -0.00000000	     79.93848502	   -124.87013969	      4.25584072	      1.92462887	     -2.02393221	     21.31509951	    -95.71092636	    261.92493819	      0.00293333	      0.04649922	     -0.48791654	      0.09070804	     17.58857387	     -1.07971900	      0.03051501	      0.10581004	     -0.02294490	      0.01282138	     23.33635552	    -37.15130120	     -0.00000000	     -0.00000000	     -0.00000000	     -0.00000000	     -0.08133682	      0.14075493	     -0.08133682	      0.14960672	     -0.08133682	      0.15484833	     -0.08133682	      0.15136573	     -0.08133682	      0.13410252	     -0.08133682	      0.11535381
      0.82950063	   -408.41017506	   -480.13863232	    415.43988730	    581.47565404	      0.00000000	      0.00000000	     -0.00000000	     -0.00000000	      0.00000000	      0.00000000	     -0.00000000	     -0.00000000	      0.00000000	      0.00000000	     -0.00000000	     -0.00000000	     79.91978058	   -125.09087583	      4.25612868	      1.92356791	     -2.02074189	     21.31949023	    -95.67171706	    262.05741929	      0.00294029	      0.04644458	     -0.48790296	      0.09075720	     17.58841229	     -1.07964938	      0.03053085	      0.10582339	     -0.02294299	      0.01280739	     23.33079927	    -37.10098034	     -0.00000000	     -0.00000000	     -0.00000000	     -0.00000000	     -0.08135609	      0.14075171	     -0.08135609	      0.14961949	     -0.08135609	      0.15484080	     -0.08135609	      0.15134511	     -0.08135609	      0.13409188	     -0.08135609	      0.11535874
      0.82985104	   -408.57841975	   -480.13863232	    415.64362557	    581.38560928	      0.00000000	      0.00000000	     -0.00000000	     -0.00000000	      0.00000000	      0.00000000	     -0.00000000	     -0.00000000	      0.00000000	      0.00000000	     -0.00000000	     -0.00000000	     79.87585723	   -125.60681690	      4.25680228	      1.92106159	     -2.01326956	     21.32972151	    -95.57983567	    262.36671720	      0.00295654	      0.04631611	     -0.48787114	      0.09087190	     17.58803401	     -1.07944106	      0.03056794	      0.10585414	     -0.02293851	      0.01277440	     23.31781945	    -36.98285299	     -0.00000000	     -0.00000000	     -0.00000000	     -0.00000000	     -0.08140120	      0.14074414	     -0.08140120	      0.14964948	     -0.08140120	      0.15482310	     -0.08140120	      0.15129676	     -0.08140120	      0.13409280	     -0.08140120	      0.11537025
      0.82997568	   -408.63826789	   -480.13863232	    415.71609191	    581.35367809	      0.00000000	      0.00000000	     -0.00000000	     -0.00000000	      0.00000000	      0.00000000	     -0.00000000	     -0.00000000	      0.00000000	      0.00000000	     -0.00000000	     -0.00000000	     79.86018922	   -125.79004811	      4.25704168	      1.92016256	     -2.01061064	     21.33334452	    -95.54712544	    262.47644016	      0.00296231	      0.04627024	     -0.48785981	      0.09091255	     17.58789946	     -1.07935159	      0.03058113	      0.10586489	     -0.02293691	      0.01276259	     23.31321225	    -36.94072933	     -0.00000000	     -0.00000000	     -0.00000000	     -0.00000000	     -0.08141725	      0.14074143	     -0.08141725	      0.14966017	     -0.08141725	      0.15481678	     -0.08141725	      0.15127954	     -0.08141725	      0.13409678	     -0.08141725	      0.11537434
      0.83024251	   -408.76638217	   -480.13863232	    415.87120407	    581.28550024	      0.00000000	      0.00000000	     -0.00000000	     -0.00000000	      0.00000000	      0.00000000	     -0.00000000	     -0.00000000	      0.00000000	      0.00000000	     -0.00000000	     -0.00000000	     79.82657268	   -126.18175404	      4.25755377	      1.91822488	     -2.00491728	     21.34107132	    -95.47705818	    262.71078943	      0.00297464	      0.04617174	     -0.48783554	      0.09099934	     17.58761149	     -1.07913286	      0.03060938	      0.10588761	     -0.02293351	      0.01273715	     23.30336749	    -36.85037573	     -0.00000000	     -0.00000000	     -0.00000000	     -0.00000000	     -0.08145161	      0.14073562	     -0.08145161	      0.14968312	     -0.08145161	      0.15480321	     -0.08145161	      0.15124264	     -0.08145161	      0.13411261	     -0.08145161	      0.11538308
      0.83065010	   -408.96208213	   -480.13863232	    416.10810938	    581.18181876	      0.00000000	      0.00000000	     -0.00000000	     -0.00000000	      0.00000000	      0.00000000	     -0.00000000	     -0.00000000	      0.00000000	      0.00000000	     -0.00000000	     -0.00000000	     79.77502048	   -126.77870811	      4.25833501	      1.91523045	     -1.99621647	     21.35279921	    -95.36990702	    263.06737545	      0.00299343	      0.04602045	     -0.48779842	      0.09113125	     17.58717173	     -1.07872685	      0.03065255	      0.10592150	     -0.02292833	      0.01269792	     23.28837583	    -36.71188218	     -0.00000000	     -0.00000000	     -0.00000000	     -0.00000000	     -0.08150408	      0.14072669	     -0.08150408	      0.14971830	     -0.08150408	      0.15478237	     -0.08150408	      0.15118616	     -0.08150408	      0.13421731	     -0.08150408	      0.11539638
      0.83069184	   -408.98212037	   -480.13863232	    416.13236437	    581.17123415	      0.00000000	      0.00000000	     -0.00000000	     -0.00000000	      0.00000000	      0.00000000	     -0.00000000	     -0.00000000	      0.00000000	      0.00000000	     -0.00000000	     -0.00000000	     79.76972818	   -126.83973674	      4.25841494	      1.91492149	     -1.99532530	     21.35399498	    -95.35892733	    263.10379239	      0.00299535	      0.04600491	     -0.48779462	      0.09114471	     17.58712671	     -1.07868036	      0.03065697	      0.10592491	     -0.02292780	      0.01269388	     23.28684398	    -36.69766923	     -0.00000000	     -0.00000000	     -0.00000000	     -0.00000000	     -0.08150946	      0.14072577	     -0.08150946	      0.14972191	     -0.08150946	      0.15478023	     -0.08150946	      0.15118037	     -0.08150946	      0.13419767	     -0.08150946	      0.11539774
      0.83084005	   -409.05328316	   -480.13863232	    416.21849872	    581.13369198	      0.00000000	      0.00000000	     -0.00000000	     -0.00000000	      0.00000000	      0.00000000	     -0.00000000	     -0.00000000	      0.00000000	      0.00000000	     -0.00000000	     -0.00000000	     79.75091283	   -127.05632786	      4.25869867	      1.91382075	     -1.99216004	     21.35823398	    -95.31992235	    263.23297935	      0.00300216	      0.04594962	     -0.48778111	      0.09119246	     17.58696684	     -1.07850783	      0.03067267	      0.10593696	     -0.02292592	      0.01267949	     23.28140865	    -36.64714590	     -0.00000000	     -0.00000000	     -0.00000000	     -0.00000000	     -0.08152854	      0.14072250	     -0.08152854	      0.14973474	     -0.08152854	      0.15477262	     -0.08152854	      0.15115980	     -0.08152854	      0.13418702	     -0.08152854	      0.11540256
      0.83118525	   -409.21902715	   -480.13863232	    416.41909117	    581.04654056	      0.00000000	      0.00000000	     -0.00000000	     -0.00000000	      0.00000000	      0.00000000	     -0.00000000	     -0.00000000	      0.00000000	      0.00000000	     -0.00000000	     -0.00000000	     79.70696600	   -127.55992197	      4.25935888	      1.91123578	     -1.98478548	     21.36806141	    -95.22900244	    263.53300652	      0.00301800	      0.04582036	     -0.48774961	      0.09130324	     17.58659462	     -1.07806104	      0.03070924	      0.10596450	     -0.02292155	      0.01264573	     23.26877840	    -36.52918245	     -0.00000000	     -0.00000000	     -0.00000000	     -0.00000000	     -0.08157298	      0.14071486	     -0.08157298	      0.14976473	     -0.08157298	      0.15475483	     -0.08157298	      0.15111181	     -0.08157298	      0.13418792	     -0.08157298	      0.11541376
